<?xml version="1.0" encoding="UTF-8"?>
<svg version="1.1" xmlns="http://www.w3.org/2000/svg" width="16" height="16">
<path d="M0 0 C5.28 0 10.56 0 16 0 C16 5.28 16 10.56 16 16 C10.72 16 5.44 16 0 16 C0 10.72 0 5.44 0 0 Z " fill="#7B8E93" transform="translate(0,0)"/>
<path d="M0 0 C2.27864583 0.06510417 4.55729167 0.13020833 6.8359375 0.1953125 C6.8359375 5.4753125 6.8359375 10.7553125 6.8359375 16.1953125 C4.1959375 16.1953125 1.5559375 16.1953125 -1.1640625 16.1953125 C-0.5040625 14.5453125 0.1559375 12.8953125 0.8359375 11.1953125 C0.1759375 10.5353125 -0.4840625 9.8753125 -1.1640625 9.1953125 C-1.1640625 8.2053125 -1.1640625 7.2153125 -1.1640625 6.1953125 C0.1559375 6.8553125 1.4759375 7.5153125 2.8359375 8.1953125 C2.5059375 7.5353125 2.1759375 6.8753125 1.8359375 6.1953125 C-1.11135787 5.03719862 -1.11135787 5.03719862 -4.1640625 5.1953125 C-4.1640625 1.64330594 -3.69375211 0.33337113 0 0 Z " fill="#8C989D" transform="translate(9.1640625,-0.1953125)"/>
<path d="M0 0 C4.74164134 2.43161094 4.74164134 2.43161094 5.9375 5.0625 C5.958125 5.701875 5.97875 6.34125 6 7 C5.34 7.66 4.68 8.32 4 9 C3.71125 8.030625 3.4225 7.06125 3.125 6.0625 C2.35785318 2.89335797 2.35785318 2.89335797 0 2 C0.7763932 5.0745356 0.7763932 5.0745356 3 7 C1.625 9.5 1.625 9.5 0 12 C-0.66 12 -1.32 12 -2 12 C-1.814375 11.278125 -1.62875 10.55625 -1.4375 9.8125 C-0.83247571 7.01214155 -0.83247571 7.01214155 -1.5625 4.3125 C-1.706875 3.549375 -1.85125 2.78625 -2 2 C-1.34 1.34 -0.68 0.68 0 0 Z " fill="#1E2328" transform="translate(8,4)"/>
<path d="M0 0 C0.99 0.495 0.99 0.495 2 1 C2.625 3.0625 2.625 3.0625 3 5 C4.65 4.67 6.3 4.34 8 4 C7.34 5.65 6.68 7.3 6 9 C4.02 9 2.04 9 0 9 C0 6.03 0 3.06 0 0 Z " fill="#D0DBDD" transform="translate(0,7)"/>
<path d="M0 0 C1.9375 0.5625 1.9375 0.5625 4 2 C4.75 5.625 4.75 5.625 5 9 C3.35 9.33 1.7 9.66 0 10 C0.66 8.35 1.32 6.7 2 5 C1.34 4.34 0.68 3.68 0 3 C0 2.01 0 1.02 0 0 Z " fill="#5D676C" transform="translate(8,6)"/>
<path d="M0 0 C2.31 0 4.62 0 7 0 C4.53846154 4.8 4.53846154 4.8 1.8125 5.8125 C1.214375 5.874375 0.61625 5.93625 0 6 C0 4.02 0 2.04 0 0 Z " fill="#4E727D" transform="translate(0,0)"/>
<path d="M0 0 C0.33 0 0.66 0 1 0 C1 2.64 1 5.28 1 8 C-0.32 7.67 -1.64 7.34 -3 7 C-2.01 4.69 -1.02 2.38 0 0 Z " fill="#DAE2E4" transform="translate(15,8)"/>
<path d="M0 0 C2.31 0 4.62 0 7 0 C7 1.65 7 3.3 7 5 C6.01 5 5.02 5 4 5 C4 4.34 4 3.68 4 3 C4.66 3 5.32 3 6 3 C6 2.34 6 1.68 6 1 C4.02 1.33 2.04 1.66 0 2 C0 1.34 0 0.68 0 0 Z " fill="#50747F" transform="translate(9,0)"/>
<path d="M0 0 C1.32 0.66 2.64 1.32 4 2 C2.625 4.5 2.625 4.5 1 7 C0.34 7 -0.32 7 -1 7 C-0.67 4.69 -0.34 2.38 0 0 Z " fill="#0B1018" transform="translate(7,9)"/>
<path d="M0 0 C0.33 0.99 0.66 1.98 1 3 C-2.75 5 -2.75 5 -5 5 C-5 4.01 -5 3.02 -5 2 C-2 0 -2 0 0 0 Z " fill="#525761" transform="translate(6,8)"/>
<path d="M0 0 C0.66 0 1.32 0 2 0 C2 0.66 2 1.32 2 2 C3.32 2 4.64 2 6 2 C5.67 3.32 5.34 4.64 5 6 C4.34 6 3.68 6 3 6 C0 2.53846154 0 2.53846154 0 0 Z " fill="#A7B8BD" transform="translate(10,3)"/>
</svg>
